<svg xmlns="http://www.w3.org/2000/svg" xmlns:xlink="http://www.w3.org/1999/xlink" width="131" height="59.137" viewBox="0 0 131 59.137">
  <defs>
    <clipPath id="clip-path">
      <rect id="Rectangle_1" data-name="Rectangle 1" width="49.139" height="34.748" fill="none" stroke="#fff" stroke-width="1"/>
    </clipPath>
  </defs>
  <g id="Group_24" data-name="Group 24" transform="translate(-125 -12.863)">
    <g id="Group_2" data-name="Group 2" transform="translate(159 12.863)">
      <g id="Group_1" data-name="Group 1" transform="translate(0 0)" clip-path="url(#clip-path)">
        <path id="Path_1" data-name="Path 1" d="M26.16,12.477S40.348-1.176,45.568,1.3c0,0,3.547,1.472-6.291,9.3l-11.912,4.15s17.287-3.815,21.75-1.339c0,0,3.949,4.045-12.381,5.1,0,0-8.1-.885-9.436-2.223,0,0,8.633,12.515,7.094,18.4,0,0-7.027-5.621-8.232-18,0,0-6.625,9.3-10.039,10.373,0,0-5.822,3.146-9.9.669A35.706,35.706,0,0,1,24.955,15.422s-16.53,7.7-23.691.067c0,0,3.413-5.287,23.156-2.343A1.392,1.392,0,0,1,26.16,12.477Z" transform="translate(-0.779 -0.617)" fill="none" stroke="#fff" stroke-miterlimit="10" stroke-width="2"/>
        <path id="Path_2" data-name="Path 2" d="M64.846,32.907c.393,1.074.166,2.144-.509,2.391s-1.54-.423-1.933-1.5-.166-2.144.508-2.391S64.453,31.833,64.846,32.907Z" transform="translate(-38.355 -19.333)" fill="none" stroke="#fff" stroke-miterlimit="10" stroke-width="2"/>
        <path id="Path_3" data-name="Path 3" d="M60.6,24.222a1.648,1.648,0,1,1-1.647-1.648A1.648,1.648,0,0,1,60.6,24.222Z" transform="translate(-35.33 -13.917)" fill="none" stroke="#fff" stroke-miterlimit="10" stroke-width="2"/>
        <path id="Path_4" data-name="Path 4" d="M65.486,23.611l1.121-3.5-1.556-1.054" transform="translate(-40.105 -11.751)" fill="none" stroke="#fff" stroke-miterlimit="10" stroke-width="2"/>
        <path id="Path_5" data-name="Path 5" d="M56.29,27.011l-3.342-1.682L53.6,23.3" transform="translate(-32.643 -14.368)" fill="none" stroke="#fff" stroke-miterlimit="10" stroke-width="2"/>
      </g>
    </g>
    <text id="The_Dragonfly" data-name="The Dragonfly" transform="translate(125 48)" fill="#fff" font-size="20" font-family="GillSansMT, Gill Sans MT"><tspan x="0" y="19">The Dragonfly</tspan></text>
  </g>
</svg>
